<svg width="50" height="50" viewBox="0 0 50 50" fill="none" xmlns="http://www.w3.org/2000/svg">
<rect width="50" height="50" rx="2" fill="#242938"/>
<path d="M8.0316 19.4492H13.7132C15.3808 19.4632 16.5892 19.944 17.3384 20.8908C18.0876 21.8376 18.3348 23.1308 18.0804 24.7704C17.9816 25.5196 17.7624 26.2544 17.4232 26.9752C17.098 27.696 16.646 28.346 16.0664 28.9256C15.3596 29.6604 14.6036 30.1268 13.798 30.3248C12.9924 30.5228 12.1584 30.6216 11.2964 30.6216H8.7524L7.9468 34.6496H5L8.0316 19.4492ZM10.512 21.866L9.24 28.226C9.3248 28.24 9.4096 28.2472 9.4944 28.2472C9.5932 28.2472 9.6924 28.2472 9.7912 28.2472C11.148 28.2612 12.2788 28.1272 13.1832 27.8444C14.0876 27.5476 14.6956 26.516 15.0064 24.7492C15.2608 23.2652 15.0064 22.41 14.2432 22.184C13.494 21.958 12.5544 21.852 11.4236 21.866C11.254 21.88 11.0916 21.8872 10.936 21.8872C10.7948 21.8872 10.6464 21.8872 10.4908 21.8872L10.512 21.866Z" fill="white"/>
<path d="M21.4372 15.4H24.3628L23.536 19.4492H26.1648C27.6064 19.4776 28.6804 19.7744 29.3872 20.3396C30.108 20.9048 30.32 21.9792 30.0232 23.562L28.6028 30.6216H25.6348L26.9916 23.88C27.1328 23.1732 27.0904 22.6716 26.8644 22.3748C26.6384 22.078 26.1508 21.9296 25.4016 21.9296L23.0484 21.9084L21.31 30.6216H18.3844L21.4372 15.4Z" fill="white"/>
<path d="M33.1648 19.4492H38.8464C40.514 19.4632 41.7224 19.944 42.4716 20.8908C43.2208 21.8376 43.468 23.1308 43.2136 24.7704C43.1148 25.5196 42.8956 26.2544 42.5564 26.9752C42.2312 27.696 41.7792 28.346 41.1996 28.9256C40.4928 29.6604 39.7368 30.1268 38.9312 30.3248C38.1256 30.5228 37.2916 30.6216 36.4296 30.6216H33.8856L33.08 34.6496H30.1332L33.1648 19.4492ZM35.6452 21.866L34.3732 28.226C34.458 28.24 34.5428 28.2472 34.6276 28.2472C34.7264 28.2472 34.8256 28.2472 34.9244 28.2472C36.2812 28.2612 37.412 28.1272 38.3164 27.8444C39.2208 27.5476 39.8288 26.516 40.1396 24.7492C40.394 23.2652 40.1396 22.41 39.3764 22.184C38.6272 21.958 37.6876 21.852 36.5568 21.866C36.3872 21.88 36.2248 21.8872 36.0692 21.8872C35.928 21.8872 35.7796 21.8872 35.624 21.8872L35.6452 21.866Z" fill="white"/>
</svg>
