<svg width="0" height="0" xmlns="http://www.w3.org/2000/svg">
    <defs>
        <symbol width="50" height="50" viewBox="0 0 50 50" fill="none" id="PHP">
        <rect width="50" height="50" rx="2" fill="#242938"/>
        <path d="M8.0316 19.4492H13.7132C15.3808 19.4632 16.5892 19.944 17.3384 20.8908C18.0876 21.8376 18.3348 23.1308 18.0804 24.7704C17.9816 25.5196 17.7624 26.2544 17.4232 26.9752C17.098 27.696 16.646 28.346 16.0664 28.9256C15.3596 29.6604 14.6036 30.1268 13.798 30.3248C12.9924 30.5228 12.1584 30.6216 11.2964 30.6216H8.7524L7.9468 34.6496H5L8.0316 19.4492ZM10.512 21.866L9.24 28.226C9.3248 28.24 9.4096 28.2472 9.4944 28.2472C9.5932 28.2472 9.6924 28.2472 9.7912 28.2472C11.148 28.2612 12.2788 28.1272 13.1832 27.8444C14.0876 27.5476 14.6956 26.516 15.0064 24.7492C15.2608 23.2652 15.0064 22.41 14.2432 22.184C13.494 21.958 12.5544 21.852 11.4236 21.866C11.254 21.88 11.0916 21.8872 10.936 21.8872C10.7948 21.8872 10.6464 21.8872 10.4908 21.8872L10.512 21.866Z" fill="white"/>
        <path d="M21.4372 15.4H24.3628L23.536 19.4492H26.1648C27.6064 19.4776 28.6804 19.7744 29.3872 20.3396C30.108 20.9048 30.32 21.9792 30.0232 23.562L28.6028 30.6216H25.6348L26.9916 23.88C27.1328 23.1732 27.0904 22.6716 26.8644 22.3748C26.6384 22.078 26.1508 21.9296 25.4016 21.9296L23.0484 21.9084L21.31 30.6216H18.3844L21.4372 15.4Z" fill="white"/>
        <path d="M33.1648 19.4492H38.8464C40.514 19.4632 41.7224 19.944 42.4716 20.8908C43.2208 21.8376 43.468 23.1308 43.2136 24.7704C43.1148 25.5196 42.8956 26.2544 42.5564 26.9752C42.2312 27.696 41.7792 28.346 41.1996 28.9256C40.4928 29.6604 39.7368 30.1268 38.9312 30.3248C38.1256 30.5228 37.2916 30.6216 36.4296 30.6216H33.8856L33.08 34.6496H30.1332L33.1648 19.4492ZM35.6452 21.866L34.3732 28.226C34.458 28.24 34.5428 28.2472 34.6276 28.2472C34.7264 28.2472 34.8256 28.2472 34.9244 28.2472C36.2812 28.2612 37.412 28.1272 38.3164 27.8444C39.2208 27.5476 39.8288 26.516 40.1396 24.7492C40.394 23.2652 40.1396 22.41 39.3764 22.184C38.6272 21.958 37.6876 21.852 36.5568 21.866C36.3872 21.88 36.2248 21.8872 36.0692 21.8872C35.928 21.8872 35.7796 21.8872 35.624 21.8872L35.6452 21.866Z" fill="white"/>
        </symbol>

        <symbol width="50" height="50" viewBox="0 0 50 50" fill="none" id="JAVA">
        <rect width="50" height="50" rx="2" fill="#242938"/>
        <g clip-path="url(#clip0_807_29)">
        <path d="M34.848 36.5427H34.6973V36.4587H35.1027V36.5427H34.9533V36.9627H34.848V36.5427ZM35.656 36.5653H35.6533L35.504 36.964H35.436L35.288 36.5653H35.2867V36.964H35.188V36.4587H35.3347L35.472 36.816L35.6093 36.4587H35.7547V36.964H35.6573L35.656 36.5653ZM21.3573 26.2187C21.3573 26.2187 20.3093 26.828 22.104 27.0347C24.2787 27.2827 25.3893 27.2467 27.7853 26.7933C27.7853 26.7933 28.4147 27.188 29.2947 27.5307C23.9227 29.832 17.1387 27.3973 21.3573 26.2187ZM20.7013 23.2147C20.7013 23.2147 19.5253 24.0853 21.3213 24.2707C23.644 24.5107 25.4773 24.5293 28.652 23.9187C28.652 23.9187 29.0907 24.364 29.7813 24.6067C23.2867 26.5053 16.0533 24.7573 20.7013 23.2147Z" fill="white"/>
        <path d="M26.2333 18.1187C27.5573 19.6427 25.8867 21.0133 25.8867 21.0133C25.8867 21.0133 29.2467 19.2787 27.704 17.1067C26.2627 15.0813 25.1573 14.0747 31.1413 10.604C31.14 10.604 21.748 12.9493 26.2333 18.1187Z" fill="#F8981D"/>
        <path d="M33.3373 28.44C33.3373 28.44 34.1133 29.0787 32.4827 29.5733C29.3827 30.512 19.5787 30.796 16.856 29.6107C15.8773 29.1853 17.7133 28.5933 18.2907 28.4693C18.8933 28.3387 19.2373 28.3627 19.2373 28.3627C18.148 27.596 12.2 29.868 16.216 30.52C27.1667 32.2973 36.1773 29.7213 33.3373 28.44ZM21.8613 20.1013C21.8613 20.1013 16.8747 21.2853 20.096 21.716C21.456 21.8987 24.1667 21.8573 26.692 21.6453C28.756 21.4707 30.828 21.1013 30.828 21.1013C30.828 21.1013 30.1 21.4133 29.5733 21.772C24.5093 23.104 14.728 22.484 17.544 21.1213C19.9253 19.9707 21.8613 20.1013 21.8613 20.1013ZM30.8067 25.1013C35.9547 22.4267 33.5747 19.856 31.9133 20.2027C31.5067 20.288 31.324 20.3613 31.324 20.3613C31.324 20.3613 31.4747 20.124 31.764 20.0227C35.0507 18.8667 37.5773 23.4307 30.7027 25.2373C30.7027 25.2373 30.7827 25.1653 30.8067 25.1013Z" fill="white"/>
        <path d="M27.7027 5C27.7027 5 30.5534 7.852 24.9987 12.2373C20.544 15.7547 23.9827 17.76 24.9974 20.052C22.3974 17.7067 20.4894 15.6413 21.7694 13.7187C23.648 10.8973 28.8534 9.52933 27.7027 5Z" fill="#F8981D"/>
        <path d="M22.3667 32.3507C27.308 32.6667 34.8947 32.1747 35.0747 29.8373C35.0747 29.8373 34.7293 30.724 30.9907 31.428C26.7733 32.2213 21.572 32.1293 18.4867 31.62C18.488 31.6187 19.12 32.1413 22.3667 32.3507ZM21.5573 41.284C21.0907 41.688 20.5987 41.9147 20.1573 41.9147C19.5267 41.9147 19.1867 41.536 19.1867 40.9307C19.1867 40.2747 19.552 39.7947 21.016 39.7947H21.5573V41.284ZM22.844 42.7347V38.2427C22.844 37.0947 22.1893 36.3387 20.612 36.3387C19.6907 36.3387 18.884 36.5667 18.228 36.856L18.4173 37.6507C18.9333 37.4613 19.6027 37.2853 20.2587 37.2853C21.168 37.2853 21.5587 37.6507 21.5587 38.408V38.976H21.1053C18.8973 38.976 17.9 39.8333 17.9 41.12C17.9 42.2307 18.556 42.8613 19.7933 42.8613C20.588 42.8613 21.1813 42.5333 21.736 42.0533L21.836 42.7347H22.844ZM27.136 42.7347H25.532L23.6013 36.452H25.0027L26.2 40.312L26.4667 41.4733C27.0733 39.7947 27.5013 38.092 27.716 36.452H29.0787C28.7133 38.5213 28.056 40.792 27.136 42.7347ZM33.2893 41.284C32.8227 41.688 32.3293 41.9147 31.888 41.9147C31.2587 41.9147 30.9173 41.536 30.9173 40.9307C30.9173 40.2747 31.2827 39.7947 32.748 39.7947H33.2907V41.284M34.576 42.7347V38.2427C34.576 37.0947 33.92 36.3387 32.344 36.3387C31.4227 36.3387 30.6147 36.5667 29.96 36.856L30.1493 37.6507C30.6653 37.4613 31.336 37.2853 31.9907 37.2853C32.8987 37.2853 33.2907 37.6507 33.2907 38.408V38.976H32.836C30.6267 38.976 29.6307 39.8333 29.6307 41.12C29.6307 42.2307 30.2867 42.8613 31.5227 42.8613C32.3173 42.8613 32.9107 42.5333 33.4667 42.0533L33.568 42.7347H34.576ZM16.4893 43.8013C16.1227 44.336 15.5307 44.76 14.8827 45L14.2467 44.2533C14.74 44 15.164 43.5907 15.36 43.2107C15.5307 42.872 15.6 42.4347 15.6 41.3907V34.2173H16.9667V41.292C16.9667 42.688 16.8547 43.252 16.4893 43.8013Z" fill="white"/>
        </g>
        <defs>
        <clipPath id="clip0_807_29">
        <rect width="21.5067" height="40" fill="white" transform="translate(14.2467 5)"/>
        </clipPath>
        </defs>
        </symbol>
    </defs>
</svg>